<?xml version="1.0" encoding="UTF-8"?> <svg xmlns="http://www.w3.org/2000/svg" width="1330" height="216" viewBox="0 0 1330 216" fill="none"><path d="M185.028 73.7038H146.69C145.597 67.4166 143.581 61.847 140.642 56.9949C137.703 52.0745 134.047 47.9058 129.674 44.4888C125.3 41.0719 120.311 38.5091 114.707 36.8007C109.172 35.0238 103.192 34.1354 96.7683 34.1354C85.3557 34.1354 75.2415 37.0057 66.4257 42.7462C57.6099 48.4183 50.7077 56.7557 45.7189 67.7583C40.7302 78.6926 38.2358 92.0529 38.2358 107.839C38.2358 123.899 40.7302 137.43 45.7189 148.433C50.776 159.367 57.6783 167.636 66.4257 173.24C75.2415 178.775 85.3215 181.543 96.6658 181.543C102.953 181.543 108.83 180.723 114.297 179.083C119.833 177.374 124.787 174.88 129.161 171.6C133.603 168.319 137.328 164.287 140.335 159.504C143.41 154.72 145.528 149.253 146.69 143.102L185.028 143.307C183.593 153.285 180.484 162.647 175.7 171.395C170.985 180.142 164.8 187.864 157.146 194.562C149.492 201.191 140.54 206.384 130.289 210.143C120.038 213.833 108.659 215.679 96.1533 215.679C77.7017 215.679 61.2319 211.407 46.744 202.865C32.2561 194.323 20.8435 181.987 12.5061 165.859C4.16869 149.731 0 130.391 0 107.839C0 85.219 4.20286 65.879 12.6086 49.8193C21.0143 33.6912 32.4611 21.356 46.949 12.8136C61.4369 4.2712 77.8383 0 96.1533 0C107.839 0 118.705 1.64014 128.751 4.92042C138.797 8.20071 147.749 13.0186 155.608 19.3742C163.467 25.6614 169.925 33.3837 174.983 42.5412C180.108 51.6303 183.457 62.0178 185.028 73.7038Z" fill="#F5F5F5"></path><path d="M224.072 212.808H183.478L257.387 2.87025H304.336L378.348 212.808H337.754L281.682 45.924H280.042L224.072 212.808ZM225.405 130.494H336.114V161.041H225.405V130.494Z" fill="#F5F5F5"></path><path d="M385.793 212.808V2.87025H464.52C480.648 2.87025 494.179 5.87717 505.113 11.891C516.116 17.9049 524.419 26.1739 530.023 36.6982C535.695 47.154 538.531 59.0451 538.531 72.3712C538.531 85.834 535.695 97.7934 530.023 108.249C524.351 118.705 515.979 126.94 504.908 132.954C493.837 138.899 480.204 141.872 464.007 141.872H411.83V110.607H458.882C468.312 110.607 476.035 108.967 482.049 105.687C488.063 102.406 492.505 97.8959 495.375 92.1554C498.313 86.4149 499.783 79.8202 499.783 72.3712C499.783 64.9222 498.313 58.3617 495.375 52.6895C492.505 47.0174 488.028 42.6095 481.946 39.4659C475.932 36.254 468.176 34.648 458.677 34.648H423.824V212.808H385.793Z" fill="#F5F5F5"></path><path d="M551.358 212.808V2.87025H630.085C646.213 2.87025 659.744 5.67215 670.678 11.276C681.681 16.8798 689.984 24.7388 695.588 34.853C701.26 44.8989 704.096 56.619 704.096 70.0135C704.096 83.4763 701.226 95.1623 695.485 105.072C689.813 114.912 681.442 122.532 670.371 127.931C659.3 133.261 645.7 135.927 629.572 135.927H573.5V104.354H624.447C633.878 104.354 641.6 103.056 647.614 100.459C653.628 97.7934 658.07 93.9322 660.94 88.8751C663.878 83.7497 665.348 77.4625 665.348 70.0135C665.348 62.5645 663.878 56.209 660.94 50.9469C658.001 45.6164 653.525 41.5844 647.511 38.8508C641.497 36.0489 633.741 34.648 624.242 34.648H589.389V212.808H551.358ZM659.812 117.68L711.784 212.808H669.346L618.296 117.68H659.812Z" fill="#F5F5F5"></path><path d="M756.927 2.87025V212.808H718.896V2.87025H756.927Z" fill="#F5F5F5"></path><path d="M957.601 73.7038H919.263C918.17 67.4166 916.154 61.847 913.215 56.9949C910.276 52.0745 906.62 47.9058 902.247 44.4888C897.873 41.0719 892.884 38.5091 887.28 36.8007C881.745 35.0238 875.765 34.1354 869.341 34.1354C857.929 34.1354 847.814 37.0057 838.999 42.7462C830.183 48.4183 823.281 56.7557 818.292 67.7583C813.303 78.6926 810.809 92.0529 810.809 107.839C810.809 123.899 813.303 137.43 818.292 148.433C823.349 159.367 830.251 167.636 838.999 173.24C847.814 178.775 857.894 181.543 869.239 181.543C875.526 181.543 881.403 180.723 886.87 179.083C892.406 177.374 897.36 174.88 901.734 171.6C906.176 168.319 909.901 164.287 912.908 159.504C915.983 154.72 918.101 149.253 919.263 143.102L957.601 143.307C956.166 153.285 953.057 162.647 948.273 171.395C943.558 180.142 937.373 187.864 929.719 194.562C922.065 201.191 913.112 206.384 902.862 210.143C892.611 213.833 881.232 215.679 868.726 215.679C850.275 215.679 833.805 211.407 819.317 202.865C804.829 194.323 793.416 181.987 785.079 165.859C776.742 149.731 772.573 130.391 772.573 107.839C772.573 85.219 776.776 65.879 785.182 49.8193C793.587 33.6912 805.034 21.356 819.522 12.8136C834.01 4.2712 850.411 0 868.726 0C880.412 0 891.278 1.64014 901.324 4.92042C911.37 8.20071 920.322 13.0186 928.181 19.3742C936.04 25.6614 942.498 33.3837 947.555 42.5412C952.681 51.6303 956.03 62.0178 957.601 73.7038Z" fill="#F5F5F5"></path><path d="M1159.81 107.839C1159.81 130.46 1155.58 149.834 1147.1 165.962C1138.7 182.021 1127.22 194.323 1112.66 202.865C1098.17 211.407 1081.74 215.679 1063.35 215.679C1044.97 215.679 1028.5 211.407 1013.94 202.865C999.455 194.254 987.974 181.919 979.5 165.859C971.095 149.731 966.892 130.391 966.892 107.839C966.892 85.219 971.095 65.879 979.5 49.8193C987.974 33.6912 999.455 21.356 1013.94 12.8136C1028.5 4.2712 1044.97 0 1063.35 0C1081.74 0 1098.17 4.2712 1112.66 12.8136C1127.22 21.356 1138.7 33.6912 1147.1 49.8193C1155.58 65.879 1159.81 85.219 1159.81 107.839ZM1121.58 107.839C1121.58 91.9162 1119.08 78.4876 1114.09 67.5533C1109.17 56.5507 1102.34 48.2475 1093.59 42.6437C1084.85 36.9715 1074.77 34.1354 1063.35 34.1354C1051.94 34.1354 1041.86 36.9715 1033.11 42.6437C1024.37 48.2475 1017.5 56.5507 1012.51 67.5533C1007.59 78.4876 1005.13 91.9162 1005.13 107.839C1005.13 123.762 1007.59 137.225 1012.51 148.228C1017.5 159.162 1024.37 167.465 1033.11 173.137C1041.86 178.741 1051.94 181.543 1063.35 181.543C1074.77 181.543 1084.85 178.741 1093.59 173.137C1102.34 167.465 1109.17 159.162 1114.09 148.228C1119.08 137.225 1121.58 123.762 1121.58 107.839Z" fill="#F5F5F5"></path><path d="M1289.65 60.5827C1288.7 51.6303 1284.67 44.6597 1277.56 39.6709C1270.52 34.6821 1261.36 32.1878 1250.09 32.1878C1242.16 32.1878 1235.36 33.3837 1229.69 35.7756C1224.01 38.1674 1219.67 41.4136 1216.67 45.5139C1213.66 49.6143 1212.12 54.2955 1212.05 59.5576C1212.05 63.9313 1213.05 67.7242 1215.03 70.9361C1217.08 74.148 1219.85 76.8816 1223.33 79.1368C1226.82 81.3237 1230.68 83.1688 1234.91 84.6723C1239.15 86.1757 1243.42 87.44 1247.73 88.4651L1267.41 93.3855C1275.34 95.2307 1282.96 97.7251 1290.27 100.869C1297.65 104.012 1304.24 107.976 1310.05 112.76C1315.93 117.543 1320.58 123.318 1323.99 130.084C1327.41 136.849 1329.12 144.777 1329.12 153.866C1329.12 166.167 1325.98 176.999 1319.69 186.361C1313.4 195.655 1304.31 202.933 1292.42 208.195C1280.6 213.389 1266.28 215.986 1249.47 215.986C1233.14 215.986 1218.96 213.458 1206.93 208.4C1194.97 203.343 1185.61 195.963 1178.84 186.259C1172.14 176.554 1168.52 164.732 1167.98 150.79H1205.39C1205.94 158.103 1208.19 164.185 1212.16 169.037C1216.12 173.889 1221.28 177.511 1227.64 179.903C1234.06 182.295 1241.24 183.491 1249.16 183.491C1257.43 183.491 1264.68 182.261 1270.89 179.8C1277.18 177.272 1282.1 173.787 1285.66 169.345C1289.21 164.834 1291.02 159.572 1291.09 153.558C1291.02 148.091 1289.41 143.581 1286.27 140.027C1283.13 136.405 1278.72 133.398 1273.05 131.006C1267.44 128.546 1260.88 126.359 1253.37 124.446L1229.48 118.295C1212.19 113.853 1198.52 107.122 1188.48 98.1009C1178.5 89.0118 1173.51 76.9499 1173.51 61.9153C1173.51 49.5459 1176.86 38.7142 1183.56 29.42C1190.32 20.1259 1199.51 12.9161 1211.13 7.79067C1222.75 2.59689 1235.91 0 1250.6 0C1265.5 0 1278.55 2.59689 1289.76 7.79067C1301.03 12.9161 1309.88 20.0576 1316.31 29.215C1322.73 38.3041 1326.04 48.76 1326.25 60.5827H1289.65Z" fill="#F5F5F5"></path></svg> 