<?xml version="1.0" encoding="UTF-8"?> <svg xmlns="http://www.w3.org/2000/svg" width="428" height="70" viewBox="0 0 428 70" fill="none"><path d="M59.5727 23.7301H47.2291C46.8771 21.7058 46.228 19.9126 45.2819 18.3504C44.3358 16.7662 43.1586 15.424 41.7504 14.3239C40.3422 13.2237 38.736 12.3986 36.9318 11.8485C35.1496 11.2765 33.2243 10.9904 31.1561 10.9904C27.4816 10.9904 24.2251 11.9146 21.3868 13.7628C18.5484 15.589 16.3261 18.2734 14.7199 21.8158C13.1137 25.3363 12.3106 29.6379 12.3106 34.7205C12.3106 39.8912 13.1137 44.2477 14.7199 47.7902C16.3481 51.3107 18.5704 53.973 21.3868 55.7772C24.2251 57.5595 27.4706 58.4506 31.123 58.4506C33.1473 58.4506 35.0396 58.1866 36.7998 57.6585C38.582 57.1084 40.1772 56.3053 41.5854 55.2492C43.0156 54.193 44.2147 52.8949 45.1829 51.3547C46.173 49.8145 46.8551 48.0542 47.2291 46.074L59.5727 46.14C59.1107 49.3524 58.1096 52.3668 56.5694 55.1832C55.0512 57.9995 53.0599 60.4859 50.5956 62.6421C48.1313 64.7764 45.2489 66.4486 41.9485 67.6588C38.648 68.847 34.9845 69.441 30.958 69.441C25.0173 69.441 19.7146 68.0658 15.05 65.3155C10.3854 62.5651 6.71087 58.5936 4.02652 53.4009C1.34217 48.2083 0 41.9815 0 34.7205C0 27.4376 1.35318 21.2108 4.05953 16.0401C6.76588 10.8474 10.4514 6.87589 15.116 4.12553C19.7806 1.37518 25.0613 0 30.958 0C34.7205 0 38.219 0.528068 41.4534 1.5842C44.6878 2.64034 47.5702 4.19155 50.1005 6.23781C52.6308 8.26207 54.7101 10.7484 56.3383 13.6968C57.9885 16.6232 59.0667 19.9676 59.5727 23.7301Z" fill="#1E1E1E"></path><path d="M72.1434 68.5169H59.0737L82.8698 0.924121H97.9858L121.815 68.5169H108.745L90.6918 14.7859H90.1638L72.1434 68.5169ZM72.5725 42.0145H108.217V51.8497H72.5725V42.0145Z" fill="#1E1E1E"></path><path d="M124.212 68.5169V0.924121H149.559C154.752 0.924121 159.109 1.89225 162.629 3.8285C166.171 5.76475 168.845 8.4271 170.649 11.8155C172.475 15.182 173.388 19.0105 173.388 23.301C173.388 27.6356 172.475 31.4861 170.649 34.8525C168.823 38.219 166.127 40.8703 162.563 42.8066C158.998 44.7208 154.609 45.6779 149.394 45.6779H132.595V35.6116H147.744C150.78 35.6116 153.267 35.0836 155.203 34.0274C157.139 32.9713 158.569 31.5191 159.494 29.6709C160.44 27.8226 160.913 25.6993 160.913 23.301C160.913 20.9027 160.44 18.7904 159.494 16.9642C158.569 15.138 157.128 13.7188 155.17 12.7067C153.234 11.6725 150.736 11.1555 147.678 11.1555H136.457V68.5169H124.212Z" fill="#1E1E1E"></path><path d="M177.518 68.5169V0.924121H202.865C208.058 0.924121 212.415 1.82624 215.935 3.63047C219.478 5.43471 222.151 7.96503 223.955 11.2215C225.781 14.4559 226.695 18.2294 226.695 22.5419C226.695 26.8765 225.77 30.639 223.922 33.8294C222.096 36.9978 219.401 39.4511 215.836 41.1894C212.272 42.9056 207.893 43.7637 202.7 43.7637H184.647V33.5984H201.05C204.087 33.5984 206.573 33.1803 208.509 32.3442C210.445 31.4861 211.876 30.2429 212.8 28.6147C213.746 26.9645 214.219 24.9402 214.219 22.5419C214.219 20.1436 213.746 18.0974 212.8 16.4031C211.854 14.6869 210.412 13.3887 208.476 12.5086C206.54 11.6065 204.043 11.1555 200.984 11.1555H189.763V68.5169H177.518ZM212.437 37.8889L229.17 68.5169H215.506L199.07 37.8889H212.437Z" fill="#1E1E1E"></path><path d="M243.704 0.924121V68.5169H231.46V0.924121H243.704Z" fill="#1E1E1E"></path><path d="M308.315 23.7301H295.971C295.619 21.7058 294.97 19.9126 294.024 18.3504C293.078 16.7662 291.9 15.424 290.492 14.3239C289.084 13.2237 287.478 12.3986 285.674 11.8485C283.891 11.2765 281.966 10.9904 279.898 10.9904C276.223 10.9904 272.967 11.9146 270.129 13.7628C267.29 15.589 265.068 18.2734 263.462 21.8158C261.855 25.3363 261.052 29.6379 261.052 34.7205C261.052 39.8912 261.855 44.2477 263.462 47.7902C265.09 51.3107 267.312 53.973 270.129 55.7772C272.967 57.5595 276.212 58.4506 279.865 58.4506C281.889 58.4506 283.781 58.1866 285.542 57.6585C287.324 57.1084 288.919 56.3053 290.327 55.2492C291.757 54.193 292.957 52.8949 293.925 51.3547C294.915 49.8145 295.597 48.0542 295.971 46.074L308.315 46.14C307.852 49.3524 306.851 52.3668 305.311 55.1832C303.793 57.9995 301.802 60.4859 299.337 62.6421C296.873 64.7764 293.991 66.4486 290.69 67.6588C287.39 68.847 283.726 69.441 279.7 69.441C273.759 69.441 268.456 68.0658 263.792 65.3155C259.127 62.5651 255.453 58.5936 252.768 53.4009C250.084 48.2083 248.742 41.9815 248.742 34.7205C248.742 27.4376 250.095 21.2108 252.801 16.0401C255.508 10.8474 259.193 6.87589 263.858 4.12553C268.522 1.37518 273.803 0 279.7 0C283.462 0 286.961 0.528068 290.195 1.5842C293.43 2.64034 296.312 4.19155 298.842 6.23781C301.373 8.26207 303.452 10.7484 305.08 13.6968C306.73 16.6232 307.808 19.9676 308.315 23.7301Z" fill="#1E1E1E"></path><path d="M373.42 34.7205C373.42 42.0035 372.056 48.2413 369.327 53.4339C366.621 58.6046 362.924 62.5651 358.238 65.3155C353.573 68.0658 348.281 69.441 342.363 69.441C336.444 69.441 331.141 68.0658 326.455 65.3155C321.79 62.5431 318.094 58.5716 315.365 53.4009C312.659 48.2083 311.306 41.9815 311.306 34.7205C311.306 27.4376 312.659 21.2108 315.365 16.0401C318.094 10.8474 321.79 6.87589 326.455 4.12553C331.141 1.37518 336.444 0 342.363 0C348.281 0 353.573 1.37518 358.238 4.12553C362.924 6.87589 366.621 10.8474 369.327 16.0401C372.056 21.2108 373.42 27.4376 373.42 34.7205ZM361.109 34.7205C361.109 29.5938 360.306 25.2703 358.7 21.7498C357.116 18.2074 354.915 15.534 352.099 13.7298C349.283 11.9035 346.037 10.9904 342.363 10.9904C338.688 10.9904 335.443 11.9035 332.626 13.7298C329.81 15.534 327.599 18.2074 325.993 21.7498C324.408 25.2703 323.616 29.5938 323.616 34.7205C323.616 39.8472 324.408 44.1817 325.993 47.7242C327.599 51.2447 329.81 53.918 332.626 55.7442C335.443 57.5485 338.688 58.4506 342.363 58.4506C346.037 58.4506 349.283 57.5485 352.099 55.7442C354.915 53.918 357.116 51.2447 358.7 47.7242C360.306 44.1817 361.109 39.8472 361.109 34.7205Z" fill="#1E1E1E"></path><path d="M415.224 19.5055C414.916 16.6232 413.618 14.3789 411.329 12.7727C409.063 11.1665 406.115 10.3633 402.484 10.3633C399.932 10.3633 397.743 10.7484 395.917 11.5185C394.09 12.2886 392.693 13.3337 391.725 14.6539C390.757 15.9741 390.262 17.4813 390.24 19.1755C390.24 20.5837 390.559 21.8048 391.197 22.839C391.857 23.8731 392.748 24.7532 393.87 25.4793C394.992 26.1834 396.236 26.7775 397.6 27.2615C398.964 27.7456 400.339 28.1527 401.725 28.4827L408.062 30.0669C410.614 30.661 413.068 31.4641 415.422 32.4762C417.798 33.4884 419.922 34.7645 421.792 36.3047C423.684 37.8449 425.18 39.7042 426.28 41.8824C427.381 44.0607 427.931 46.6131 427.931 49.5394C427.931 53.5 426.919 56.9874 424.894 60.0018C422.87 62.9942 419.944 65.3375 416.115 67.0317C412.309 68.7039 407.699 69.54 402.286 69.54C397.028 69.54 392.462 68.7259 388.59 67.0977C384.739 65.4695 381.725 63.0932 379.546 59.9688C377.39 56.8444 376.224 53.0379 376.048 48.5493H388.094C388.271 50.9036 388.997 52.8619 390.273 54.4241C391.549 55.9863 393.21 57.1524 395.256 57.9225C397.325 58.6926 399.635 59.0777 402.187 59.0777C404.85 59.0777 407.182 58.6816 409.184 57.8895C411.208 57.0754 412.793 55.9533 413.937 54.5231C415.081 53.0709 415.664 51.3767 415.686 49.4404C415.664 47.6802 415.147 46.228 414.135 45.0839C413.123 43.9177 411.704 42.9496 409.877 42.1795C408.073 41.3874 405.961 40.6833 403.54 40.0672L395.85 38.087C390.284 36.6568 385.883 34.4895 382.649 31.5851C379.436 28.6587 377.83 24.7752 377.83 19.9346C377.83 15.9521 378.908 12.4646 381.065 9.47223C383.243 6.47984 386.202 4.15854 389.943 2.50833C393.683 0.836108 397.919 0 402.649 0C407.446 0 411.649 0.836108 415.257 2.50833C418.887 4.15854 421.737 6.45784 423.805 9.40622C425.873 12.3326 426.941 15.699 427.007 19.5055H415.224Z" fill="#1E1E1E"></path></svg> 