<?xml version="1.0" encoding="UTF-8"?> <svg xmlns="http://www.w3.org/2000/svg" width="71" height="35" viewBox="0 0 71 35" fill="none"><path d="M58.0446 5.44812L61.9109 14.1297H54.4613L58.0446 5.44812ZM59.3115 0.175616H56.8864L46.5881 24.2873H50.1031L53.1247 17.2224H63.3131L66.5158 24.2873H70.0294L59.3115 0.175616ZM45.3225 0.309674H41.8773V24.2873H45.3225V0.309674ZM38.6089 14.1176H30.5654V17.2104H35.169V20.4841C33.5174 21.0109 31.8296 21.4332 29.9675 21.4332C24.2687 21.4412 20.2658 17.6796 20.2658 12.3333C20.2658 7.13188 24.3076 3.15975 29.5158 3.15975C32.398 3.15975 35.3151 3.96409 38.1263 5.5138V2.0283C34.3566 0.457138 32.3886 0 29.5761 0C22.2659 0 16.7065 5.37706 16.7065 12.4419C16.7065 19.4719 22.1198 24.6023 29.4662 24.6023C32.8042 24.6023 35.4063 24.0406 38.6036 22.6343L38.6089 14.1176ZM15.7279 0.316377H0.961426V24.2873H16.0443V21.1946H4.40672V13.7436H15.3767V10.6496H4.40672V3.41043H15.7293L15.7279 0.316377ZM61.4604 32.8442H61.7674V30.0826C61.7674 29.049 62.7058 28.2232 63.7984 28.2232C65.0049 28.2232 65.5291 28.8573 65.5291 30.1282V32.8442H65.8361V30.0826C65.8361 28.9847 66.7745 28.2232 67.981 28.2232C69.1875 28.2232 69.5897 28.8573 69.5897 30.1282V32.8442H69.8967V29.6925C69.8967 28.4766 69.335 27.9699 68.048 27.9699C66.8871 27.9699 66.0908 28.3868 65.7463 29.2568C65.4299 28.2862 65.0036 27.9699 64.088 27.9699C62.919 27.9699 62.1307 28.3868 61.7768 29.2568V28.0945H61.4698L61.4604 32.8442ZM55.6128 30.2247C55.7201 28.9351 56.6545 28.2138 57.8342 28.2138C58.9857 28.2138 60.0005 28.8935 60.0005 30.2247H55.6128ZM60.1266 31.5653H59.7244C59.5072 32.2356 58.7538 32.69 57.8395 32.69C56.57 32.69 55.708 31.9916 55.6182 30.4767H60.3625C60.3625 28.9619 59.3745 27.9645 57.8342 27.9645C56.2938 27.9645 55.2871 28.9431 55.2871 30.466C55.2871 31.9889 56.2563 32.9514 57.8342 32.9514C59.0755 32.9514 59.9282 32.3535 60.1266 31.5639M53.6449 31.6739V28.3492H54.8058V28.0811H53.6462V26.5287H53.3392V28.0878H52.4504V28.3559H53.3392V31.7583C53.3392 32.6377 53.492 32.9649 54.1543 32.9649C54.3795 32.9664 54.6033 32.9302 54.8165 32.8576V32.5774C54.6618 32.6482 54.4956 32.6909 54.3259 32.7034C53.7012 32.7034 53.6462 32.2677 53.6462 31.6873M47.5117 31.6323C47.5653 32.4675 48.3 33.0372 49.7129 33.0372C51.3216 33.0372 52.059 32.5493 52.059 31.5867C52.059 30.8534 51.6715 30.5545 50.6098 30.4003L49.3041 30.2006C48.4997 30.092 47.9796 29.8641 47.9796 29.2206C47.9796 28.6039 48.6231 28.1857 49.6379 28.1857C50.7264 28.1857 51.4249 28.5946 51.5147 29.2206H51.8673C51.8485 28.5128 51.1246 27.9605 49.7371 27.9605C48.3228 27.9605 47.6337 28.4672 47.6337 29.2568C47.6337 30.0102 48.0359 30.3172 49.1284 30.4714L50.6031 30.6899C51.2841 30.7985 51.7091 31.0921 51.7091 31.6511C51.7091 32.3763 50.9744 32.7852 49.7692 32.7852C48.6365 32.7852 47.9192 32.3321 47.8375 31.6337L47.5117 31.6323ZM44.6469 33.5641L47.1565 28.1026H46.8092L44.7702 32.7758L42.7486 28.1026H42.3692L44.6174 33.001C44.2005 33.9395 43.8921 34.4261 43.2219 34.4261C43.0571 34.4224 42.8929 34.4045 42.7312 34.3725V34.6245C42.8622 34.6606 42.9975 34.6791 43.1334 34.6795C44.0718 34.6795 44.1938 34.3269 44.6469 33.5641ZM37.5592 31.6243C37.6142 32.4595 38.3462 33.0292 39.7605 33.0292C41.3692 33.0292 42.1078 32.5412 42.1078 31.5787C42.1078 30.8454 41.7204 30.5464 40.6587 30.3923L39.3516 30.1925C38.554 30.0839 38.0271 29.856 38.0271 29.2126C38.0271 28.5959 38.6719 28.1776 39.6867 28.1776C40.7753 28.1776 41.4737 28.5865 41.5636 29.2126H41.9148C41.8974 28.5047 41.1734 27.9524 39.7859 27.9524C38.373 27.9524 37.6839 28.4592 37.6839 29.2488C37.6839 30.0022 38.0861 30.3092 39.1787 30.4633L40.6533 30.6818C41.333 30.7904 41.7593 31.084 41.7593 31.643C41.7593 32.3683 41.0246 32.7772 39.8181 32.7772C38.684 32.7772 37.9681 32.3241 37.8863 31.6256L37.5592 31.6243ZM29.4179 30.2287C29.5278 28.9391 30.4609 28.2179 31.6392 28.2179C32.7895 28.2179 33.8056 28.8975 33.8056 30.2287H29.4179ZM33.933 31.5693H33.5308C33.3136 32.2396 32.5616 32.6941 31.646 32.6941C30.3764 32.6941 29.5158 31.9956 29.4246 30.4808H34.1676C34.1676 28.9659 33.1809 27.9685 31.6392 27.9685C30.0976 27.9685 29.0921 28.9471 29.0921 30.47C29.0921 31.9929 30.0614 32.9555 31.6392 32.9555C32.8806 32.9555 33.7332 32.3576 33.9316 31.568M26.4995 32.8442V30.2971C26.4995 29.4163 27.1242 28.2286 28.0398 28.2286C28.442 28.2286 28.6296 28.301 28.7463 28.3734V28.0744C28.533 28.005 28.3096 27.9715 28.0854 27.9752C27.4231 27.9752 26.7796 28.3774 26.4995 29.3627V28.1012H26.1925V32.8442H26.4995ZM25.1857 32.5372C25.1389 32.5544 25.0903 32.5666 25.0409 32.5734C24.6052 32.5734 24.624 32.2651 24.624 31.9205V29.6563C24.624 29.1388 24.6052 28.8211 24.3706 28.5222C24.0449 28.1321 23.518 27.9699 22.6212 27.9699C21.1465 27.9699 20.3918 28.486 20.4012 29.3922H20.7162C20.7162 28.6763 21.3597 28.2219 22.5756 28.2219C23.6735 28.2219 24.2902 28.5758 24.2902 29.2568C24.2902 30.1456 23.5917 30.0732 22.3678 30.2462C21.534 30.3534 20.9629 30.4459 20.6371 30.6805C20.4866 30.7846 20.3651 30.9254 20.2844 31.0897C20.2037 31.254 20.1664 31.4361 20.176 31.6189C20.176 32.4903 20.7363 32.9501 21.9335 32.9501C22.8491 32.9501 23.8277 32.6981 24.2915 31.8267C24.2915 32.7517 24.4175 32.8415 24.7983 32.8415C24.9298 32.8372 25.0606 32.8193 25.1884 32.7879L25.1857 32.5372ZM24.2875 30.0196V30.958C24.2875 32.0104 23.2982 32.745 21.9844 32.745C21.0956 32.745 20.4964 32.2731 20.4964 31.6484C20.4964 30.7945 21.2042 30.6765 22.3289 30.5049C23.199 30.3708 23.8331 30.4419 24.2875 30.025M19.0204 31.3307C18.8662 32.0935 18.0592 32.7101 17.0631 32.7101C15.748 32.7101 14.8324 31.8026 14.8324 30.4419C14.8324 29.0812 15.7708 28.2286 17.0444 28.2286C17.9962 28.2286 18.7214 28.6455 18.9574 29.3801H19.318C19.192 28.5758 18.3032 27.9752 17.0618 27.9752C15.4933 27.9752 14.5053 28.9002 14.5053 30.4419C14.5053 31.9835 15.492 32.9622 17.0618 32.9622C18.33 32.9622 19.255 32.2383 19.3636 31.3307H19.0204ZM13.402 30.4915C13.402 31.8508 12.4958 32.7597 11.1807 32.7597C9.86556 32.7597 8.95128 31.8428 8.95128 30.4915C8.95128 29.1402 9.85885 28.2768 11.182 28.2768C12.5052 28.2768 13.4033 29.1295 13.4033 30.4915M13.7291 30.4915C13.7291 28.9498 12.7424 28.0248 11.182 28.0248C9.62157 28.0248 8.62686 28.9498 8.62686 30.4915C8.60319 31.1048 8.79267 31.7073 9.16309 32.1967C9.61755 32.7235 10.3066 33.0118 11.174 33.0118C12.0802 33.0118 12.7827 32.7048 13.2318 32.1337C13.5575 31.7168 13.7291 31.1631 13.7197 30.4915M7.49273 26.2633H7.18574V26.8706H7.49273V26.2633ZM7.18574 32.8442H7.49273V28.0959H7.18574V32.8442ZM1.33679 30.4539C1.33679 29.1295 2.23498 28.2232 3.5407 28.2232C4.84643 28.2232 5.73523 29.1482 5.73523 30.4539C5.73523 31.7798 4.83838 32.6954 3.53266 32.6954C2.22693 32.6954 1.33679 31.7892 1.33679 30.4539ZM1.02175 32.8442H1.33679V31.576C1.81806 32.6552 2.70686 32.9528 3.5407 32.9528C5.08237 32.9528 6.06903 31.9648 6.06903 30.4499C6.06903 28.9351 5.08237 27.9658 3.5407 27.9658C2.72429 27.9658 1.86364 28.2004 1.33679 29.3064V26.2633H1.02175V32.8442Z" fill="#9B9B9D"></path></svg> 